<?xml version="1.0" encoding="utf-8"?>
<!-- Generator: Adobe Illustrator 25.2.2, SVG Export Plug-In . SVG Version: 6.00 Build 0)  -->
<svg version="1.1" id="Layer_1" xmlns="http://www.w3.org/2000/svg" xmlns:xlink="http://www.w3.org/1999/xlink" x="0px" y="0px"
	 viewBox="0 0 2694.9 1547.6" style="enable-background:new 0 0 2694.9 1547.6;" xml:space="preserve">
<style type="text/css">
	.st0{fill-rule:evenodd;clip-rule:evenodd;fill:#F39DAA;}
	.st1{fill:#4A4A49;}
</style>
<g>
	<g>
		<path class="st0" d="M303.6,318.2c25.7-8.7,276.7-72.8,279.6-30.7c0.9,13.7-129.4,26-144.1,28.6c-19.2,3.4-49.4,7.8-74.8,17
			c56.8-9.8,155.2-20.3,185.2-14.9c46.1,8.4,45.7,45.9-46.1,40.6c-22.1-1.3-116.3-6.3-147.6,3.4c47.1,3.3,189.6,13.6,138.1,50.6
			c-16,11.5-43.9,8.8-68.9,1.4c17.4,21,25.1,46-7.3,53.8c-17.5,4.2-31.2-1.1-45.4-10.6c16.7,6.5,33.3,12,50.6,3.3
			c29.2-14.7-3-41.6-26.8-57.5c-8.4-4-15.1-8.2-19.1-11.8c-0.7-0.4-1.2-0.7-1.4-0.8l0.2-0.3c-3.7-3.8-4-6.7,0.6-8
			c6.2-1.7,18.4,4.4,30.4,14.2c18.9,6.7,79.6,24.6,84.8,1.7l0,0v0c-12.1-21.5-151.1-14.8-158-25.7c-3.8-6.1-3.5-11-0.1-15
			c-9.1,1.6-18.9,2.2-21-4.4c-12-38.4,179.9-58.8,245.1-67.8C504.4,278.1,331.9,313.4,303.6,318.2 M441.8,340.6
			c46.4-0.5,93.7,1.1,112.2-2.5C532.9,331.9,486,335.3,441.8,340.6z"/>
		<path class="st0" d="M424.1,491.6c-102.2-47.9-193.3-40-294.8,7.9c-11,5.2-20.6,10.1-29.2,14.9c67.7-0.5,95,64.4,101.1,129.9
			c0.1,1.6,0.3,3.1,0.4,4.5c21,53.5,3.7,100.1-11.5,78.9c-4.4-6.2-4.2-42.4-8.2-80.1c-19.5-40.9-56.5-81.6-99-68.3
			c-0.9,0.3-2,0.7-2.7,1.3c0,0,0,0,0,0c-3.5,6.8,91,87,65.3,97.5C133.7,683-5,560.4,64.8,676.6c-74.3-83.9,24.5-53.5,70.6-15.3
			c-9.1-16.9-33.5-36.8-42.4-45.5c-71.2-69.6,32-55.9,61.5-31.2c7.7,6.4,14.5,13.2,20.4,20.1c-1.9-7.9-4.3-15.3-7.2-21.9
			c-21.2-48.6-65.5-57-101.8-46.8c-15.9,11.6-31,24.6-51.2,42C-7,596.9-12.9,541,63.7,520C170.5,450.4,314.7,420,424.1,491.6"/>
		<path class="st0" d="M472.7,500c-62,30.7-143.1,79.6-199.9,141.6c10.4-0.7,13.8,15.5,11.9,29.9c-3.2,23.6-9.7,42.1-15.4,59.9
			c0.5,0.4,1.1,0.8,1.7,1.3c5.4,4.7-1.4,1.9,4.8,13.4c17,31.7,82.2,184.8,120.8,77.2c9.8-27.4,2.4-43.3-22.6-52.8
			c54.5,1,29.4,94.5-7,99.3c-37.8,4.9-78.3-60.4-96.7-105.2c-0.2,19.4-0.9,42.6-16.6,44.4c-4.8,0.5-7.9-1.4-9.7-5.3
			c-11.5,58.6-51.5,36.2-55.6-5.7C175.8,671.8,362.9,533.1,472.7,500 M235.6,690.4c-18.9,30.7-30.7,63.8-31.4,98.9
			c-0.5,23.2,19.9,61.8,24-3.8C229.9,757.3,227.1,721.2,235.6,690.4z M247.3,752.4c6.8-30.5,17.6-65.6,20-84.8
			C250.8,688.6,248.1,723.3,247.3,752.4z"/>
		<path class="st0" d="M576.8,255.2c-15.8,102.3-15.1,58.4-54.2,148.7c-34.6,79.9,1,111.8,16.8,189.5c2.5,12.4,7.7,41.8,12.6,78.6
			c22.6-16.1,48.5-27.3,75.9-31.8c76.2-12.4,0.6,55.8-18.6,70.6c-11,8.4-28.9,20.9-49.6,32.5c7.9,95.8,5.1,200.6-43.2,202.2
			c-36.1,1.2-46.1-105.9-46.2-121.3c0-17.3,2.7-34.4,7.7-50.7c-29.5,2.9-54-7.8-61.6-45.6c-10.6-52.4,42.1-103.9,97.7-100.5
			c-50.4,6.8-101.3,47.2-89.3,98.7c8,34.5,31.4,40.7,57.1,36.2c11.6-30.7,31.4-58.2,56.2-79.5c-7.6-66-18.5-124.7-25.7-144.6
			c-35.7-99.5-0.9-134.2,47.9-220.9C570.5,276.1,565.2,296.7,576.8,255.2 M554.5,691.3c1.4,12,2.8,24.5,4,37.4
			c33.8-21.4,82.6-56.5,87.1-74.7C612.4,657.8,580.6,671,554.5,691.3z M544.5,751.5c-15.2,7.7-31.3,14.4-46.8,18.4
			c-1,3.2-2,6.4-2.9,9.7c-9.7,36.3-4.4,124.5,22.1,147.3C546.4,920.4,550.3,838.9,544.5,751.5z M502.8,756.8
			c9.2-3.2,18.2-7.1,26.5-11c3-1.4,7.9-4.1,14.2-7.8c-0.9-11.5-1.9-23-3.1-34.5C524.7,718.6,511.7,736.6,502.8,756.8z"/>
		<path class="st0" d="M395.2,469.1c39.2,36.2,41.8,34.7,93.2,36.1c0,0,11.6-0.5,20.6,1c1,0,2,0,3.1,0l-0.1,0.6
			c6.9,1.6,10.9,4.6,3.8,10.4c-0.1,0.1-2.2,0.4-5.5,0.8l-0.1,0.4l-1.6-0.2c-9.3,1.3-25.1,3.5-31.8,5.3c-1.4,0.4-2.8,0.6-4.3,0.8
			c15.2,4,28.7,6.4,38.2,6.5c49,0.6,78.1-20.2,117.9-43.4l0,0l-19.5,17.7l-18.7,13.3c-117.1,72-285.1-44.5-248.3-63.5
			c9.1-4.7,38.6,20.4,54.9,28.8c6.2,3.2,11.7,6,16.7,8.5C408,486.4,401.9,478.8,395.2,469.1"/>
		<path class="st0" d="M572.5,206c40.9-21.8,41.1,4.5,37.3,52.5c-7.6,97.2-63.9,156.1-46.8,270.8c9.9,66.5,13.8,75.9-14.4,140.1
			c15.2-69.9,13.8-69.9,0.2-137.4c-29.5-146.5,62.7-201.5,49-326.8C586.7,201.7,588.1,203.7,572.5,206"/>
		<path class="st0" d="M369.9,312.5c-31.5-48.1-43.4-82,18.9-82.5c38.4-0.3,56.9-10.8,54.5-53.7c-0.8-14.8-11.7-37.4-16.4-53.1
			l10.6,12.7c28.9,39.5,29.5,107.5-27.6,112C342.9,253,355.5,224.4,369.9,312.5"/>
		<path class="st0" d="M438.9,89.6c11.9,28.2,2.3,36.7,33,69.1c10,10.5,21.1,16,33.4,23.2C450.7,186.6,417.3,127.8,438.9,89.6"/>
		<path class="st0" d="M196.2,692.8c40-69.8,70.8-94.3,145.6-127c19.7-8.6,52.2-21.3,67.5-39.4c-27.4,5.7-109.1,44.1-141.5,62.4
			c-4.4,2.8-8.8,5.7-13.2,8.6c-9.2,6.9-31.5,23.2-47.8,31.1c-2,1.3-4,2.6-6,3.8l-0.4-1c-9.1,3.4-14.6,2.2-11.3-8.3
			c3.1-9.7,132.8-88.9,156.8-101.7l1-0.5c-72.9,22.4-204.1,74.9-187.1,44.4c5.3-9.4,76.5-43.9,129.3-68.1
			c-44.9,9.3-99.6,20.3-106.7,15.7c-12.3-8,32.6-28.8,63.1-41.6c-17.7,3.9-34.8,8.8-53.2,12.7c19.5-7.8,45.3-17,65.6-21.5
			c22.3-4.9,23.8-2.6,15.3,3.2l0.1,0.5l-1.1,0.2c-14.1,9.2-50.5,26-70.3,36.6l13.5-1.2c15.3-2.5,101.4-27.7,126.9-28.1l0.4-0.2v0.1
			c3.1,0,5.2,0.3,6.1,1.2c12.1,10.7-30.8,23.7-36.2,26.3c-11,5.3-35.9,18.4-61.7,32c59-20.9,126.8-45,143.6-40.1
			c19.2,5.5,7.2,17.6-8.6,27.8c17.3-5.6,30.5-8.2,35.2-5.3c26.8,16.8-69.6,57-75.6,59.4C265,607.7,246.6,626.6,196.2,692.8"/>
		<path class="st0" d="M425,519.3C386.5,562.6,278.4,687.8,278.4,746c20.3-44.2,102.6-172.5,126.1-198c13.8-14.9,57.5-52,40.4-6.6
			c8.5-8.1,16.7-11.7,24.1-8.8c4.8,1.9,6.9,7.7,7.1,16.1c8.6-17.6,17.2-21.7,24.6-1.3c10,27.6-19.6,227.4-28.8,274.2
			c2.3-44,32-253.2,17-275.3c-20.9,33.3-35.2,130.6-41.9,170.8c-6.6,39.6-0.1,41.9-20.1,77.7c-54.5-18.4,26.1-188,32.6-239.2
			c-33.1,35.3-39.9,52.2-60.6,101.8c-7.3,17.6-45,141.5-71.7,137.3c-44.6-6.9,63.3-186.7,97.7-248.7
			c-35.9,35.7-102.5,147.4-112.4,164.2c-5.2,8.8-39.2,84.3-44,42.4C261.6,691.9,377.8,560.1,425,519.3 M367.2,686.5
			c-14.3,28.1-26.1,54.5-30.6,73C344.3,742.9,355,716,367.2,686.5z M441.7,673.6c-2.1,6.2-3.9,11.4-5,15.2
			c-2.8,9.9-18.6,62.4-12.9,83.7C424.8,766.7,431.8,722.4,441.7,673.6z M424.3,773.7c1.2,3.6,3.1,6.2,6,7.2L424.3,773.7z"/>
		<path class="st0" d="M413.4,442.1c2.6-0.1,10.7-0.4,21.1-0.3c-26.8-12.1-48-27.7-33.3-37.3c8.6-5.6,43.3,0.3,72.9,3.7
			c-28.3-7.1-59.6-17.3-75.2-28.4c20.2,4,128.7,24.6,130.6,30c7.2,21-58.5,17.4-96.1,13.8c21.9,11,55.5,22,65,25l-0.3,0.7
			c4.2,2,6.2,4.5,4.8,7.7c-2.1,4.7-17.6,2.6-36.3-3C448.7,450.6,430.9,447.5,413.4,442.1 M414.9,410.6c0-0.1-0.1-0.2-0.1-0.2
			C414.8,410.4,414.8,410.5,414.9,410.6z"/>
		<path class="st0" d="M446.9,0.3c22.3,24.4,14.7,23.8,44.6,46.5c43.5,33,93.8,58.2,100.5,109.2c8.3-8.2,13.8-17.7,21.6-39.3
			L613,133c-2.1,10.5-10.1,22-20.2,33.5c0.2,12-1.9,25.3-6.8,40.3c-22.5,69.6-122.7,59.7-26.9-23.4c6.1-5.3,11.3-9.5,15.8-13.1
			C577,90.2,455.3,60.4,446.9,0.3 M572.8,187.5c-20.2,20-40.2,38.4-39.2,50c12.3-0.2,27.5-18.8,32.1-29
			C568.9,201.2,571.2,194.2,572.8,187.5z"/>
		<path class="st0" d="M443.4,190.5c-20.5-20.2-39.5-40-51.8-60.8c-3.2,14.5-3.3,29.9,1.5,46c4.5,14.9,11.4,16.4,25.1,18.9
			c-18.1,6-30.3-4.7-34.5-21.9c-5.5-22.8-4.7-42.8-0.5-60.3c-10.6-27.4-8.3-57.2,17.6-92.9c28.5-39.2,65-12.5,32.5,32.4
			c-13.4,18.4-28,38.7-36.6,61C405.3,138.5,424.9,163.2,443.4,190.5 M392.2,86.4c14.9-32.7,37.6-54,35.2-66.7
			c-4.3,1.1-12.3,10.6-12.3,10.6C398.8,50.6,392.3,69,392.2,86.4z M427.1,18.8L427.1,18.8L427.1,18.8L427.1,18.8z M428.1,19.5
			c0.2,0,0.2,0,0.4,0C428.4,19.6,428.3,19.5,428.1,19.5z"/>
		<path class="st0" d="M433.7,863.3c100.3,59,73.8,198.5,67.9,300.5c-3.8,65.8-6.2,114.8-5.2,169.6c2.7,38,4.3,69.7,4.3,90.5
			l0.1,1.3c0.1,1.6,0.1,3-0.1,4.4l0,1l-0.2,0c-2.5,12.1-16.9,12.8-18.9-1.2c0-0.2-0.1-1.9-0.1-4.7c-3.5-37.6-4.3-75.2-3.5-112.7
			c-8-127.4-28.7-358.9-65.1-437.1l-3.3-7.9l5.3,6.7c29,39.7,53.8,190.1,69.1,327.3c2.1-27.2,4.4-54.4,6.6-81.7
			C498.8,1015.7,517.2,936,433.7,863.3"/>
		<path class="st0" d="M361.9,862.7c0.6,95.5,33.5,95,71.6,177.3c32.9,71,49.9,181.7,39.2,258.3c-14.5-114.2-23.3-195.7-79.3-300.1
			C361.8,939.2,346.9,930.8,361.9,862.7"/>
		<path class="st0" d="M499.9,1337.8c41.5,19.4,2.4,75.3,24.1,146c4.7,15.2,5.5,27.4,2.7,36c9,3.3,14.6,7.7,10.7,13.9
			c-2,3.2-69.5,13.2-78.7,13.6l-20.3-1.5c20.1-4.9,37.1-10,55.4-14.5c-3.2-0.9-6.6-2.2-10.1-3.8c-8.3-2.2-14.1-5.7-13.3-11.6
			c1.6-12.3,13.1-7.3,23.4-3.6c3.8,0.6,8.1,1.4,12.7,2.3c2.4-0.7,4-2.8,4-7.3c0.2-28.7-13.5-41.5-6.8-93.4
			C510.5,1360.3,521.5,1372.6,499.9,1337.8"/>
	</g>
</g>
<g>
	<path class="st1" d="M917.4,745.5c0,32.7-10.2,60.6-30.6,83.7c-20.4,23-49.2,39-86.4,47.9c-4.5-10.9-10.7-22.8-18.8-35.8
		c28.9-4,52-14.6,69.3-31.5c17.3-17,25.9-37,25.9-60c0-19-5.4-39.6-16.3-61.8c-7.6-16.2-21.3-38.2-41-66.1
		c-20.5-29.5-34.2-50.7-41-63.7c-10.9-21.4-16.3-42.2-16.3-62.4c0-31.9,10.1-58.7,30.3-80.3c20.2-21.6,48.7-35.7,85.5-42.1
		c4,12.1,8.9,23.2,14.6,33.3c-28.1,3.2-50.1,12.7-65.9,28.5c-15.9,15.8-23.8,35.6-23.8,59.4c0,23,13.4,53.9,40.1,92.5
		c26.7,38.6,44.3,66,52.8,82.2C910.2,696.6,917.4,722,917.4,745.5z"/>
	<path class="st1" d="M1230.8,867.3c-8.1,0-14.8,0-20.1,0c-4.1,0-11.3,0-21.9,0c-3.6-21.8-13.7-74.6-30.3-158.3h-69.2
		c-3.6,15.8-12,68.5-25.3,158.2c-8.1,0-14.7,0-20,0c-4.4,0-11.5,0-21.2,0c18.6-93.4,45.7-255,81.3-485c4,0,10.1,0,18.2,0
		c8.1,0,13.9,0,17.6,0C1176.3,610.7,1206.6,772.3,1230.8,867.3z M1152.6,673.3c-11.3-67.1-21-134-29.1-200.7h-1.8
		c-3.2,37.2-12.3,104.1-27.3,200.7c2.8,0,7.5,0,13.9,0c6.5,0,11.3,0,14.6,0c3.2,0,8.1,0,14.6,0
		C1143.9,673.3,1149,673.3,1152.6,673.3z"/>
	<g>
		<path class="st1" d="M1483.7,745.5c0,32.7-10.2,60.6-30.6,83.7c-20.4,23-49.2,39-86.4,47.9c-4.5-10.9-10.7-22.8-18.8-35.8
			c28.9-4,52-14.6,69.3-31.5c17.3-17,25.9-37,25.9-60c0-19-5.4-39.6-16.3-61.8c-7.6-16.2-21.3-38.2-41-66.1
			c-20.5-29.5-34.2-50.7-41-63.7c-10.9-21.4-16.3-42.2-16.3-62.4c0-31.9,10.1-58.7,30.3-80.3c20.2-21.6,48.7-35.7,85.5-42.1
			c4,12.1,8.9,23.2,14.6,33.3c-28.1,3.2-50.1,12.7-65.9,28.5c-15.9,15.8-23.8,35.6-23.8,59.4c0,23,13.4,53.9,40.1,92.5
			c26.7,38.6,44.3,66,52.8,82.2C1476.4,696.6,1483.7,722,1483.7,745.5z"/>
	</g>
	<g>
		<path class="st1" d="M1794.7,867.3c-8.8,0-15.5,0-20.3,0c-4,0-10.8,0-20.3,0c0-35.6,0-78.2,0-127.9c0-69.5-0.4-121-1.2-154.6
			c-8.6-0.4-22-0.6-40.1-0.6c-17.7,0-31.2,0.2-40.7,0.6c-1.2,71.9-1.8,132.6-1.8,181.9c0,40.8,0,74.4,0,100.6c-4.3,0-11,0-20,0
			c-9,0-15.9,0-20.6,0c2.4-70.3,3.6-143.7,3.6-220.1c0-71.1-1.2-159.5-3.6-264.9c4.4,0,11,0,19.7,0c9.2,0,16.1,0,20.9,0
			c0,13.7,0,41,0,81.8c0,9.7,0.4,37.6,1.2,83.7c9.1,0.4,22.5,0.6,40.4,0.6c18.6,0,32.4-0.2,41.5-0.6c0.4-15.4,0.6-36,0.6-61.8
			c0-10.1,0-26.7,0-49.7c0-23,0-41,0-54c2.4,0,5.8,0,10.2,0c4.8,0,8.2,0,10.2,0c2.4,0,5.8,0,10.2,0c4.8,0,8.2,0,10.2,0
			c-2.4,73.6-3.6,149.6-3.6,228C1791.1,686.7,1792.3,772.3,1794.7,867.3z"/>
	</g>
	<g>
		<path class="st1" d="M2148.8,867.3c-8.1,0-14.8,0-20.1,0c-4.1,0-11.3,0-21.9,0c-3.6-21.8-13.7-74.6-30.3-158.3h-69.2
			c-3.6,15.8-12,68.5-25.3,158.2c-8.1,0-14.7,0-20,0c-4.4,0-11.5,0-21.2,0c18.6-93.4,45.7-255,81.3-485c4,0,10.1,0,18.2,0
			s13.9,0,17.6,0C2094.2,610.7,2124.5,772.3,2148.8,867.3z M2070.6,673.3c-11.3-67.1-21-134-29.1-200.7h-1.8
			c-3.2,37.2-12.3,104.1-27.3,200.7c2.8,0,7.5,0,13.9,0c6.5,0,11.3,0,14.6,0c3.2,0,8.1,0,14.6,0
			C2061.9,673.3,2066.9,673.3,2070.6,673.3z"/>
		<path class="st1" d="M2430.1,382.3c-33.3,90.9-58.1,166.1-74.6,225.5v151.6c0,29.9,0,65.9,0,107.9c-4.6,0-11.4,0-20.5,0
			c-8.4,0-14.5,0-18.3,0c0-36.4,0-80,0-131c0-55.4-0.4-98.2-1.2-128.5c-6.1-22.2-30.3-97.4-72.8-225.5c4.9,0,12.1,0,21.8,0
			c9.7,0,17,0,21.8,0c13.3,59.4,30.3,118.4,50.9,177c10.1-27.5,26.7-86.5,49.7-177c4.8,0,11.9,0,21.2,0
			C2418,382.3,2425.2,382.3,2430.1,382.3z"/>
		<path class="st1" d="M2694.4,745.5c0,32.7-10.2,60.6-30.6,83.7c-20.4,23-49.2,39-86.4,47.9c-4.5-10.9-10.7-22.8-18.8-35.8
			c28.9-4,52-14.6,69.3-31.5c17.3-17,25.9-37,25.9-60c0-19-5.4-39.6-16.3-61.8c-7.6-16.2-21.3-38.2-41-66.1
			c-20.5-29.5-34.2-50.7-41-63.7c-10.9-21.4-16.3-42.2-16.3-62.4c0-31.9,10.1-58.7,30.3-80.3c20.2-21.6,48.7-35.7,85.5-42.1
			c4,12.1,8.9,23.2,14.6,33.3c-28.1,3.2-50.1,12.7-65.9,28.5c-15.9,15.8-23.8,35.6-23.8,59.4c0,23,13.4,53.9,40.1,92.5
			c26.7,38.6,44.3,66,52.8,82.2C2687.2,696.6,2694.4,722,2694.4,745.5z"/>
	</g>
	<g>
		<path d="M841.9,1108.9c0,7.2-1.8,12.7-5.5,16.7c-3.7,4-8.8,5.9-15.4,5.9c-0.7,0-2.1,0-4.2,0c-2.1,0-3.8,0-5.2,0
			c-2.6,0-4.7,0-6.2,0c0.4-25.6,0.5-47.3,0.5-64.9c0-19.8-0.2-34.5-0.5-44.2c1,0,2.4,0,4.1,0c1,0,2.1,0,3.4,0c1.4,0,2.2,0,2.6,0
			c6.4,0,11.3,2.1,14.9,6.3c3.5,4.2,5.3,10.2,5.3,17.9c0,9-3,16.5-8.9,22.4C836.9,1080.8,841.9,1094,841.9,1108.9z M827.4,1046.7
			c0-5.6-0.9-9.7-2.6-12.1c-1.8-2.5-4.8-3.7-9.1-3.7h-1.1v37.4c4-1,7.1-3.4,9.4-7.2C826.2,1057.2,827.4,1052.4,827.4,1046.7z
			 M833.2,1109.1c0-13.2-4.2-24.8-12.7-34.9c-1.6,1-3.6,1.9-5.8,2.6c-0.1,2.4-0.1,8-0.1,17c0,11.6,0,21.3,0.1,29.1
			c1.4,0,2.8,0,4.2,0h2.2C829.2,1122.9,833.2,1118.3,833.2,1109.1z"/>
	</g>
	<g>
		<path d="M971.1,1077.9c0,18.8-1.6,32.6-4.9,41.3c-3.4,9.1-8.7,13.6-16.1,13.6c-14.4,0-21.5-18.3-21.5-55c0-19.3,1.7-33.6,5.2-42.9
			c3.5-9.3,8.9-14,16.4-14c7.4,0,12.7,4.6,16,13.9C969.4,1044.2,971.1,1058.5,971.1,1077.9z M961.9,1078c0-16.8-0.9-29-2.6-36.8
			c-1.9-8.1-5-12.1-9.3-12.1c-8.3,0-12.4,16.3-12.4,48.9c0,16.3,0.9,28,2.7,35.3c1.9,7.7,5.1,11.6,9.7,11.6c4.5,0,7.6-3.9,9.4-11.6
			C961.1,1106.2,961.9,1094.4,961.9,1078z"/>
	</g>
	<g>
		<path d="M1096,1108.2c0,8.5-1.3,14.7-4,18.6c-2.6,3.9-7,5.8-13.2,5.8c-6.4,0-10.7-1.9-13.2-5.7c-2.4-3.8-3.6-10.2-3.6-19.1
			c0,0.9,0-3.7,0-13.8c0-10.1,0-20.6,0-31.6c0-19,0-32.3,0-40c0.6,0,1.5,0,2.5,0c1.1,0,1.9,0,2.4,0c0.5,0,1.2,0,2.1,0
			c1,0,1.7,0,2.1,0c-0.3,10.7-0.4,22.7-0.4,36c0,35.5,0.3,54.9,0.8,58.1c0.9,5.4,3.3,8,7.2,8c3.1,0,5.4-1.3,6.7-4
			c1.1-2.4,1.7-6.4,1.7-12.1v-7.5c0-3.5,0-10.3,0-20.4c0-10,0-18.3,0-24.7c0-12.5,0-23.6,0-33.4c0.9,0,2.4,0,4.2,0
			c2.1,0,3.6,0,4.6,0c0,7.8,0,25.8,0,53.9c0,7.3,0,14.5,0,21.5C1096,1104.9,1096,1108.4,1096,1108.2z"/>
	</g>
	<g>
		<path d="M1216.4,1030.5c-2,0-3.6,0-5,0c-1.2,0-3.3,0.1-6.3,0.3c-0.3,7-0.4,21.7-0.4,44c0,18,0.1,37,0.4,56.8c-2,0-3.5,0-4.5,0
			c-0.9,0-2.5,0-4.6,0c0.3-15,0.4-29.3,0.4-42.9c0-5.4,0-13.9-0.1-25.5c-0.2-15-0.3-25.8-0.3-32.4c-2.7-0.2-4.7-0.3-5.9-0.3
			c-1.3,0-3.1,0-5.7,0c0-0.9,0-2.2,0-3.9c0-1.8,0-3.2,0-4.2c4.1,0,9.6,0,16.5,0c6.7,0,11.9,0,15.5,0c0,1,0,2.1,0,3.2
			c0,1.1,0,1.8,0,1.9c0,0.2,0,0.6,0,1.2C1216.4,1029.4,1216.4,1029.9,1216.4,1030.5z"/>
	</g>
	<g>
		<path d="M1314.3,1131.5c-2,0-3.5,0-4.6,0c-0.9,0-2.4,0-4.6,0c0.4-13.5,0.5-28.2,0.5-44c0-6.2-0.1-15.8-0.2-28.9
			c-0.2-17-0.4-29-0.4-36.1c1.1,0,2.6,0,4.7,0c2.1,0,3.5,0,4.4,0v69.7C1314.3,1104.7,1314.3,1117.9,1314.3,1131.5z"/>
	</g>
	<g>
		<path d="M1449.7,1140.6c-2.1,2.3-3.6,4.7-4.5,7.4c-8.8-2.1-14.8-7.2-18-15.4c-14.3-0.5-21.4-18.8-21.4-54.8
			c0-37.8,7.2-56.7,21.5-56.7c7.4,0,12.7,4.6,16,13.8c3.3,9.2,5,23.5,5,42.9c0,30.6-4.6,48.4-13.8,53.2
			C1438,1136.5,1443,1139.7,1449.7,1140.6z M1439.2,1077.8c0-16.8-0.9-29-2.6-36.6c-1.9-8.1-5-12.1-9.3-12.1
			c-8.3,0-12.4,16.3-12.4,48.7c0,28.9,3.4,44.3,10.2,46.3c-0.3-3-0.4-5.7-0.4-8.2c0-1.6,0-2.9,0.1-3.7c2.3-0.8,4.3-2,6.1-3.4v2.5
			c0,4.2,0.3,8,0.8,11.6C1436.7,1119,1439.2,1104,1439.2,1077.8z"/>
	</g>
	<g>
		<path d="M1573.2,1108.2c0,8.5-1.3,14.7-4,18.6c-2.6,3.9-7,5.8-13.2,5.8c-6.4,0-10.7-1.9-13.2-5.7c-2.4-3.8-3.6-10.2-3.6-19.1
			c0,0.9,0-3.7,0-13.8c0-10.1,0-20.6,0-31.6c0-19,0-32.3,0-40c0.6,0,1.5,0,2.5,0c1.1,0,1.9,0,2.4,0c0.5,0,1.2,0,2.1,0
			c1,0,1.7,0,2.1,0c-0.3,10.7-0.4,22.7-0.4,36c0,35.5,0.3,54.9,0.8,58.1c0.9,5.4,3.3,8,7.2,8c3.1,0,5.4-1.3,6.7-4
			c1.1-2.4,1.7-6.4,1.7-12.1v-7.5c0-3.5,0-10.3,0-20.4c0-10,0-18.3,0-24.7c0-12.5,0-23.6,0-33.4c0.9,0,2.4,0,4.2,0
			c2.1,0,3.6,0,4.6,0c0,7.8,0,25.8,0,53.9c0,7.3,0,14.5,0,21.5C1573.2,1104.9,1573.2,1108.4,1573.2,1108.2z"/>
	</g>
	<g>
		<path d="M1692.1,1131.5c-2.7,0-6.8,0-12.3,0c-5.7,0-10,0-12.9,0l0.4-57.8c0-23.5-0.1-40.6-0.4-51.3c3,0,7.2,0,12.7,0
			c5.4,0,9.4,0,11.9,0c0,0.5,0,1.1,0,2c0,1,0,1.7,0,2.2c0,0.5,0,1.3,0,2.2c0,0.9,0,1.6,0,2c-2,0-4.7,0-8.2,0c-3.2,0-5.6,0-7.2,0.1
			c-0.1,5.4-0.1,11-0.1,16.8c0,5.3,0,9.2,0.1,11.8c1.6,0.1,3.9,0.1,6.9,0.1c3.6,0,6.2,0,7.7,0c0,1,0,2.3,0,4.1c0,1.2,0,2.6,0,4
			c-3.2,0-5.7,0-7.3,0c-1.6,0-4.1,0.1-7.3,0.3c-0.1,2.4-0.1,11.4-0.1,27.1c0,13,0,22.4,0.1,28.1c1.8,0.1,4.5,0.1,8,0.1
			c3.6,0,6.3,0,8,0c0,0.4,0,1.1,0,2c0,0.9,0,1.5,0,2c0,0.4,0,1.1,0,2C1692.1,1130.3,1692.1,1131,1692.1,1131.5z"/>
	</g>
	<g>
		<path d="M1910.6,1030.9c-1.8,0-4.5,0-7.8,0c-3.1,0-5.4,0-6.7,0.1c-0.1,5.5-0.1,11.1-0.1,16.9c0,5.3,0,9.2,0.1,11.9
			c1.1,0,2.6,0,4.4,0c1.7,0,3,0,3.7,0c0.8,0,1.9,0,3.2,0c1.3,0,2.2,0,2.6,0c0,0.8,0,1.7,0,2.8c0,1,0,1.5,0,1.7s0,0.7,0,1.5
			c0,0.8,0,1.5,0,2.1c-3.2,0-5.6,0-7.2,0c-1.4,0-3.6,0.1-6.5,0.3c-0.3,11.2-0.4,21.2-0.4,29.8c0,13.2,0.1,24.4,0.4,33.6
			c-1,0-2.5,0-4.6,0c-2,0-3.5,0-4.6,0c0.4-27.1,0.5-46.4,0.5-58c0-19.9-0.2-37-0.5-51.1c3.3,0,8,0,14.1,0c4.3,0,7.5,0,9.5,0
			c0,0.9,0,2.3,0,4.2C1910.6,1028.5,1910.6,1030,1910.6,1030.9z"/>
	</g>
	<g>
		<path d="M2041.3,1131.5c-1.8,0-3.3,0-4.5,0c-0.9,0-2.6,0-4.9,0c-0.8-4.9-3.1-16.8-6.8-35.6h-15.6c-0.8,3.5-2.7,15.4-5.7,35.6
			c-1.8,0-3.3,0-4.5,0c-1,0-2.6,0-4.8,0c4.2-21,10.3-57.4,18.3-109.1c0.9,0,2.3,0,4.1,0c1.8,0,3.1,0,4,0
			C2029,1073.8,2035.9,1110.1,2041.3,1131.5z M2023.7,1087.9c-2.5-15.1-4.7-30.1-6.5-45.1h-0.4c-0.7,8.4-2.8,23.4-6.1,45.1
			c0.6,0,1.7,0,3.1,0c1.5,0,2.5,0,3.3,0c0.7,0,1.8,0,3.3,0C2021.8,1087.9,2022.9,1087.9,2023.7,1087.9z"/>
	</g>
	<g>
		<path d="M2158,1104.1c0,7.4-2.3,13.6-6.9,18.8c-4.6,5.2-11.1,8.8-19.4,10.8c-1-2.5-2.4-5.1-4.2-8c6.5-0.9,11.7-3.3,15.6-7.1
			c3.9-3.8,5.8-8.3,5.8-13.5c0-4.3-1.2-8.9-3.7-13.9c-1.7-3.6-4.8-8.6-9.2-14.9c-4.6-6.6-7.7-11.4-9.2-14.3c-2.4-4.8-3.7-9.5-3.7-14
			c0-7.2,2.3-13.2,6.8-18.1c4.5-4.9,11-8,19.2-9.5c0.9,2.7,2,5.2,3.3,7.5c-6.3,0.7-11.3,2.9-14.8,6.4c-3.6,3.5-5.4,8-5.4,13.4
			c0,5.2,3,12.1,9,20.8c6,8.7,10,14.8,11.9,18.5C2156.4,1093.1,2158,1098.8,2158,1104.1z"/>
	</g>
	<g>
		<path d="M2283.2,1131.5c-2,0-3.5,0-4.6,0c-0.9,0-2.4,0-4.6,0c0-8,0-17.6,0-28.8c0-15.6-0.1-27.2-0.3-34.8c-1.9-0.1-4.9-0.1-9-0.1
			c-4,0-7,0-9.1,0.1c-0.3,16.2-0.4,29.8-0.4,40.9c0,9.2,0,16.7,0,22.6c-1,0-2.5,0-4.5,0c-2,0-3.6,0-4.6,0
			c0.5-15.8,0.8-32.3,0.8-49.5c0-16-0.3-35.9-0.8-59.6c1,0,2.5,0,4.4,0c2.1,0,3.6,0,4.7,0c0,3.1,0,9.2,0,18.4
			c0,2.2,0.1,8.5,0.3,18.8c2,0.1,5.1,0.1,9.1,0.1c4.2,0,7.3,0,9.3-0.1c0.1-3.5,0.1-8.1,0.1-13.9c0-2.3,0-6,0-11.2
			c0-5.2,0-9.2,0-12.1c0.5,0,1.3,0,2.3,0c1.1,0,1.8,0,2.3,0c0.5,0,1.3,0,2.3,0c1.1,0,1.8,0,2.3,0c-0.5,16.5-0.8,33.6-0.8,51.3
			C2282.4,1090.9,2282.7,1110.1,2283.2,1131.5z"/>
	</g>
	<g>
		<path d="M2386.6,1131.5c-2,0-3.5,0-4.6,0c-0.9,0-2.4,0-4.6,0c0.4-13.5,0.5-28.2,0.5-44c0-6.2-0.1-15.8-0.2-28.9
			c-0.2-17-0.4-29-0.4-36.1c1.1,0,2.6,0,4.7,0c2.1,0,3.5,0,4.4,0v69.7C2386.6,1104.7,2386.6,1117.9,2386.6,1131.5z"/>
	</g>
	<g>
		<path d="M2520.6,1077.9c0,18.8-1.6,32.6-4.9,41.3c-3.4,9.1-8.7,13.6-16.1,13.6c-14.4,0-21.5-18.3-21.5-55
			c0-19.3,1.7-33.6,5.2-42.9c3.5-9.3,8.9-14,16.4-14c7.4,0,12.7,4.6,16,13.9C2518.9,1044.2,2520.6,1058.5,2520.6,1077.9z
			 M2511.5,1078c0-16.8-0.9-29-2.6-36.8c-1.9-8.1-5-12.1-9.3-12.1c-8.3,0-12.4,16.3-12.4,48.9c0,16.3,0.9,28,2.7,35.3
			c1.9,7.7,5.1,11.6,9.7,11.6c4.5,0,7.6-3.9,9.4-11.6C2510.7,1106.2,2511.5,1094.4,2511.5,1078z"/>
	</g>
	<g>
		<path d="M2651.1,1131.5c-1.9,0-3.4,0-4.5,0c-1,0-2.5,0-4.6,0c0-7.5,0-16.2,0-26.3c0-7.9-0.1-15.5-0.4-22.6
			c-8.7-12.6-15.7-23.6-21-33c0,44.8,0.2,72.1,0.5,81.9c-2,0-3.5,0-4.6,0c-1.1,0-2.6,0-4.6,0c0.5-15,0.7-32.8,0.7-53.5
			c0-20.5-0.2-39.1-0.7-55.6c0.3,0,0.8,0,1.5,0c0.6,0,1.1,0,1.5,0c0.4,0,0.9,0,1.5,0c0.7,0,1.2,0,1.5,0c4.8,14,12.8,29.1,23.9,45.3
			c0.1-4.3,0.1-10.5,0.1-18.5c0-2.7,0-11.6,0-26.7c1,0,2.5,0,4.6,0c2.1,0,3.6,0,4.6,0c-0.5,15.9-0.8,34-0.8,54.1
			C2650.3,1096.5,2650.6,1114.9,2651.1,1131.5z"/>
	</g>
</g>
</svg>
